<mxfile host="app.diagrams.net" modified="2021-09-08T14:20:59.239Z" agent="5.0 (Windows)" etag="WNsdDhSJ1Yc6t0NGQPEl" version="14.6.13" type="github">
  <diagram id="k3ZTsZZ2fHjCqm_ODI6S" name="Page-1">
    <mxGraphModel dx="1360" dy="598" grid="1" gridSize="10" guides="1" tooltips="1" connect="1" arrows="1" fold="1" page="1" pageScale="1" pageWidth="2339" pageHeight="3300" math="0" shadow="0">
      <root>
        <mxCell id="0" />
        <mxCell id="1" parent="0" />
        <mxCell id="_PAfrLWKHHTyLRyNxyh0-1" value="Passenger" style="shape=table;startSize=30;container=1;collapsible=1;childLayout=tableLayout;fixedRows=1;rowLines=0;fontStyle=1;align=center;resizeLast=1;" parent="1" vertex="1">
          <mxGeometry x="265" y="130" width="180" height="160" as="geometry" />
        </mxCell>
        <mxCell id="_PAfrLWKHHTyLRyNxyh0-2" value="" style="shape=partialRectangle;collapsible=0;dropTarget=0;pointerEvents=0;fillColor=none;top=0;left=0;bottom=1;right=0;points=[[0,0.5],[1,0.5]];portConstraint=eastwest;" parent="_PAfrLWKHHTyLRyNxyh0-1" vertex="1">
          <mxGeometry y="30" width="180" height="30" as="geometry" />
        </mxCell>
        <mxCell id="_PAfrLWKHHTyLRyNxyh0-3" value="PK" style="shape=partialRectangle;connectable=0;fillColor=none;top=0;left=0;bottom=0;right=0;fontStyle=1;overflow=hidden;" parent="_PAfrLWKHHTyLRyNxyh0-2" vertex="1">
          <mxGeometry width="30" height="30" as="geometry" />
        </mxCell>
        <mxCell id="_PAfrLWKHHTyLRyNxyh0-4" value="ID:int(11)" style="shape=partialRectangle;connectable=0;fillColor=none;top=0;left=0;bottom=0;right=0;align=left;spacingLeft=6;fontStyle=5;overflow=hidden;" parent="_PAfrLWKHHTyLRyNxyh0-2" vertex="1">
          <mxGeometry x="30" width="150" height="30" as="geometry" />
        </mxCell>
        <mxCell id="_PAfrLWKHHTyLRyNxyh0-5" value="" style="shape=partialRectangle;collapsible=0;dropTarget=0;pointerEvents=0;fillColor=none;top=0;left=0;bottom=0;right=0;points=[[0,0.5],[1,0.5]];portConstraint=eastwest;" parent="_PAfrLWKHHTyLRyNxyh0-1" vertex="1">
          <mxGeometry y="60" width="180" height="30" as="geometry" />
        </mxCell>
        <mxCell id="_PAfrLWKHHTyLRyNxyh0-6" value="" style="shape=partialRectangle;connectable=0;fillColor=none;top=0;left=0;bottom=0;right=0;editable=1;overflow=hidden;" parent="_PAfrLWKHHTyLRyNxyh0-5" vertex="1">
          <mxGeometry width="30" height="30" as="geometry" />
        </mxCell>
        <mxCell id="_PAfrLWKHHTyLRyNxyh0-7" value="Name : Varchar(50)" style="shape=partialRectangle;connectable=0;fillColor=none;top=0;left=0;bottom=0;right=0;align=left;spacingLeft=6;overflow=hidden;" parent="_PAfrLWKHHTyLRyNxyh0-5" vertex="1">
          <mxGeometry x="30" width="150" height="30" as="geometry" />
        </mxCell>
        <mxCell id="_PAfrLWKHHTyLRyNxyh0-8" value="" style="shape=partialRectangle;collapsible=0;dropTarget=0;pointerEvents=0;fillColor=none;top=0;left=0;bottom=0;right=0;points=[[0,0.5],[1,0.5]];portConstraint=eastwest;" parent="_PAfrLWKHHTyLRyNxyh0-1" vertex="1">
          <mxGeometry y="90" width="180" height="30" as="geometry" />
        </mxCell>
        <mxCell id="_PAfrLWKHHTyLRyNxyh0-9" value="" style="shape=partialRectangle;connectable=0;fillColor=none;top=0;left=0;bottom=0;right=0;editable=1;overflow=hidden;" parent="_PAfrLWKHHTyLRyNxyh0-8" vertex="1">
          <mxGeometry width="30" height="30" as="geometry" />
        </mxCell>
        <mxCell id="_PAfrLWKHHTyLRyNxyh0-10" value="Phone : Int (11)" style="shape=partialRectangle;connectable=0;fillColor=none;top=0;left=0;bottom=0;right=0;align=left;spacingLeft=6;overflow=hidden;" parent="_PAfrLWKHHTyLRyNxyh0-8" vertex="1">
          <mxGeometry x="30" width="150" height="30" as="geometry" />
        </mxCell>
        <mxCell id="_PAfrLWKHHTyLRyNxyh0-11" value="" style="shape=partialRectangle;collapsible=0;dropTarget=0;pointerEvents=0;fillColor=none;top=0;left=0;bottom=0;right=0;points=[[0,0.5],[1,0.5]];portConstraint=eastwest;" parent="_PAfrLWKHHTyLRyNxyh0-1" vertex="1">
          <mxGeometry y="120" width="180" height="30" as="geometry" />
        </mxCell>
        <mxCell id="_PAfrLWKHHTyLRyNxyh0-12" value="" style="shape=partialRectangle;connectable=0;fillColor=none;top=0;left=0;bottom=0;right=0;editable=1;overflow=hidden;" parent="_PAfrLWKHHTyLRyNxyh0-11" vertex="1">
          <mxGeometry width="30" height="30" as="geometry" />
        </mxCell>
        <mxCell id="_PAfrLWKHHTyLRyNxyh0-13" value="RouteCode : Varchar(11)" style="shape=partialRectangle;connectable=0;fillColor=none;top=0;left=0;bottom=0;right=0;align=left;spacingLeft=6;overflow=hidden;" parent="_PAfrLWKHHTyLRyNxyh0-11" vertex="1">
          <mxGeometry x="30" width="150" height="30" as="geometry" />
        </mxCell>
        <mxCell id="_PAfrLWKHHTyLRyNxyh0-14" value="Route" style="shape=table;startSize=30;container=1;collapsible=1;childLayout=tableLayout;fixedRows=1;rowLines=0;fontStyle=1;align=center;resizeLast=1;" parent="1" vertex="1">
          <mxGeometry x="695" y="120" width="210" height="170" as="geometry" />
        </mxCell>
        <mxCell id="_PAfrLWKHHTyLRyNxyh0-15" value="" style="shape=partialRectangle;collapsible=0;dropTarget=0;pointerEvents=0;fillColor=none;top=0;left=0;bottom=1;right=0;points=[[0,0.5],[1,0.5]];portConstraint=eastwest;" parent="_PAfrLWKHHTyLRyNxyh0-14" vertex="1">
          <mxGeometry y="30" width="210" height="30" as="geometry" />
        </mxCell>
        <mxCell id="_PAfrLWKHHTyLRyNxyh0-16" value="PK" style="shape=partialRectangle;connectable=0;fillColor=none;top=0;left=0;bottom=0;right=0;fontStyle=1;overflow=hidden;" parent="_PAfrLWKHHTyLRyNxyh0-15" vertex="1">
          <mxGeometry width="30" height="30" as="geometry" />
        </mxCell>
        <mxCell id="_PAfrLWKHHTyLRyNxyh0-17" value="Route Code : Varchar(50)" style="shape=partialRectangle;connectable=0;fillColor=none;top=0;left=0;bottom=0;right=0;align=left;spacingLeft=6;fontStyle=5;overflow=hidden;" parent="_PAfrLWKHHTyLRyNxyh0-15" vertex="1">
          <mxGeometry x="30" width="180" height="30" as="geometry" />
        </mxCell>
        <mxCell id="_PAfrLWKHHTyLRyNxyh0-18" value="" style="shape=partialRectangle;collapsible=0;dropTarget=0;pointerEvents=0;fillColor=none;top=0;left=0;bottom=0;right=0;points=[[0,0.5],[1,0.5]];portConstraint=eastwest;" parent="_PAfrLWKHHTyLRyNxyh0-14" vertex="1">
          <mxGeometry y="60" width="210" height="30" as="geometry" />
        </mxCell>
        <mxCell id="_PAfrLWKHHTyLRyNxyh0-19" value="" style="shape=partialRectangle;connectable=0;fillColor=none;top=0;left=0;bottom=0;right=0;editable=1;overflow=hidden;" parent="_PAfrLWKHHTyLRyNxyh0-18" vertex="1">
          <mxGeometry width="30" height="30" as="geometry" />
        </mxCell>
        <mxCell id="_PAfrLWKHHTyLRyNxyh0-20" value="Departure : Varchar(50)" style="shape=partialRectangle;connectable=0;fillColor=none;top=0;left=0;bottom=0;right=0;align=left;spacingLeft=6;overflow=hidden;" parent="_PAfrLWKHHTyLRyNxyh0-18" vertex="1">
          <mxGeometry x="30" width="180" height="30" as="geometry" />
        </mxCell>
        <mxCell id="_PAfrLWKHHTyLRyNxyh0-21" value="" style="shape=partialRectangle;collapsible=0;dropTarget=0;pointerEvents=0;fillColor=none;top=0;left=0;bottom=0;right=0;points=[[0,0.5],[1,0.5]];portConstraint=eastwest;" parent="_PAfrLWKHHTyLRyNxyh0-14" vertex="1">
          <mxGeometry y="90" width="210" height="30" as="geometry" />
        </mxCell>
        <mxCell id="_PAfrLWKHHTyLRyNxyh0-22" value="" style="shape=partialRectangle;connectable=0;fillColor=none;top=0;left=0;bottom=0;right=0;editable=1;overflow=hidden;" parent="_PAfrLWKHHTyLRyNxyh0-21" vertex="1">
          <mxGeometry width="30" height="30" as="geometry" />
        </mxCell>
        <mxCell id="_PAfrLWKHHTyLRyNxyh0-23" value="Destination : Varchar(50)" style="shape=partialRectangle;connectable=0;fillColor=none;top=0;left=0;bottom=0;right=0;align=left;spacingLeft=6;overflow=hidden;" parent="_PAfrLWKHHTyLRyNxyh0-21" vertex="1">
          <mxGeometry x="30" width="180" height="30" as="geometry" />
        </mxCell>
        <mxCell id="_PAfrLWKHHTyLRyNxyh0-24" value="" style="shape=partialRectangle;collapsible=0;dropTarget=0;pointerEvents=0;fillColor=none;top=0;left=0;bottom=0;right=0;points=[[0,0.5],[1,0.5]];portConstraint=eastwest;" parent="_PAfrLWKHHTyLRyNxyh0-14" vertex="1">
          <mxGeometry y="120" width="210" height="30" as="geometry" />
        </mxCell>
        <mxCell id="_PAfrLWKHHTyLRyNxyh0-25" value="" style="shape=partialRectangle;connectable=0;fillColor=none;top=0;left=0;bottom=0;right=0;editable=1;overflow=hidden;" parent="_PAfrLWKHHTyLRyNxyh0-24" vertex="1">
          <mxGeometry width="30" height="30" as="geometry" />
        </mxCell>
        <mxCell id="_PAfrLWKHHTyLRyNxyh0-26" value="CompanyName : Varchar(50)" style="shape=partialRectangle;connectable=0;fillColor=none;top=0;left=0;bottom=0;right=0;align=left;spacingLeft=6;overflow=hidden;" parent="_PAfrLWKHHTyLRyNxyh0-24" vertex="1">
          <mxGeometry x="30" width="180" height="30" as="geometry" />
        </mxCell>
        <mxCell id="_PAfrLWKHHTyLRyNxyh0-30" value="Company" style="shape=table;startSize=30;container=1;collapsible=1;childLayout=tableLayout;fixedRows=1;rowLines=0;fontStyle=1;align=center;resizeLast=1;" parent="1" vertex="1">
          <mxGeometry x="420" y="330" width="205" height="160" as="geometry" />
        </mxCell>
        <mxCell id="_PAfrLWKHHTyLRyNxyh0-31" value="" style="shape=partialRectangle;collapsible=0;dropTarget=0;pointerEvents=0;fillColor=none;top=0;left=0;bottom=1;right=0;points=[[0,0.5],[1,0.5]];portConstraint=eastwest;" parent="_PAfrLWKHHTyLRyNxyh0-30" vertex="1">
          <mxGeometry y="30" width="205" height="30" as="geometry" />
        </mxCell>
        <mxCell id="_PAfrLWKHHTyLRyNxyh0-32" value="PK" style="shape=partialRectangle;connectable=0;fillColor=none;top=0;left=0;bottom=0;right=0;fontStyle=1;overflow=hidden;" parent="_PAfrLWKHHTyLRyNxyh0-31" vertex="1">
          <mxGeometry width="30" height="30" as="geometry" />
        </mxCell>
        <mxCell id="_PAfrLWKHHTyLRyNxyh0-33" value="TinNumber : Int(11)" style="shape=partialRectangle;connectable=0;fillColor=none;top=0;left=0;bottom=0;right=0;align=left;spacingLeft=6;fontStyle=5;overflow=hidden;" parent="_PAfrLWKHHTyLRyNxyh0-31" vertex="1">
          <mxGeometry x="30" width="175" height="30" as="geometry" />
        </mxCell>
        <mxCell id="_PAfrLWKHHTyLRyNxyh0-34" value="" style="shape=partialRectangle;collapsible=0;dropTarget=0;pointerEvents=0;fillColor=none;top=0;left=0;bottom=0;right=0;points=[[0,0.5],[1,0.5]];portConstraint=eastwest;" parent="_PAfrLWKHHTyLRyNxyh0-30" vertex="1">
          <mxGeometry y="60" width="205" height="30" as="geometry" />
        </mxCell>
        <mxCell id="_PAfrLWKHHTyLRyNxyh0-35" value="" style="shape=partialRectangle;connectable=0;fillColor=none;top=0;left=0;bottom=0;right=0;editable=1;overflow=hidden;" parent="_PAfrLWKHHTyLRyNxyh0-34" vertex="1">
          <mxGeometry width="30" height="30" as="geometry" />
        </mxCell>
        <mxCell id="_PAfrLWKHHTyLRyNxyh0-36" value="CompanyName : Varchar(50)" style="shape=partialRectangle;connectable=0;fillColor=none;top=0;left=0;bottom=0;right=0;align=left;spacingLeft=6;overflow=hidden;" parent="_PAfrLWKHHTyLRyNxyh0-34" vertex="1">
          <mxGeometry x="30" width="175" height="30" as="geometry" />
        </mxCell>
        <mxCell id="_PAfrLWKHHTyLRyNxyh0-37" value="" style="shape=partialRectangle;collapsible=0;dropTarget=0;pointerEvents=0;fillColor=none;top=0;left=0;bottom=0;right=0;points=[[0,0.5],[1,0.5]];portConstraint=eastwest;" parent="_PAfrLWKHHTyLRyNxyh0-30" vertex="1">
          <mxGeometry y="90" width="205" height="30" as="geometry" />
        </mxCell>
        <mxCell id="_PAfrLWKHHTyLRyNxyh0-38" value="" style="shape=partialRectangle;connectable=0;fillColor=none;top=0;left=0;bottom=0;right=0;editable=1;overflow=hidden;" parent="_PAfrLWKHHTyLRyNxyh0-37" vertex="1">
          <mxGeometry width="30" height="30" as="geometry" />
        </mxCell>
        <mxCell id="_PAfrLWKHHTyLRyNxyh0-39" value="RouteCode : Varchar(11)" style="shape=partialRectangle;connectable=0;fillColor=none;top=0;left=0;bottom=0;right=0;align=left;spacingLeft=6;overflow=hidden;" parent="_PAfrLWKHHTyLRyNxyh0-37" vertex="1">
          <mxGeometry x="30" width="175" height="30" as="geometry" />
        </mxCell>
        <mxCell id="_PAfrLWKHHTyLRyNxyh0-40" value="" style="shape=partialRectangle;collapsible=0;dropTarget=0;pointerEvents=0;fillColor=none;top=0;left=0;bottom=0;right=0;points=[[0,0.5],[1,0.5]];portConstraint=eastwest;" parent="_PAfrLWKHHTyLRyNxyh0-30" vertex="1">
          <mxGeometry y="120" width="205" height="30" as="geometry" />
        </mxCell>
        <mxCell id="_PAfrLWKHHTyLRyNxyh0-41" value="" style="shape=partialRectangle;connectable=0;fillColor=none;top=0;left=0;bottom=0;right=0;editable=1;overflow=hidden;" parent="_PAfrLWKHHTyLRyNxyh0-40" vertex="1">
          <mxGeometry width="30" height="30" as="geometry" />
        </mxCell>
        <mxCell id="_PAfrLWKHHTyLRyNxyh0-42" value="" style="shape=partialRectangle;connectable=0;fillColor=none;top=0;left=0;bottom=0;right=0;align=left;spacingLeft=6;overflow=hidden;" parent="_PAfrLWKHHTyLRyNxyh0-40" vertex="1">
          <mxGeometry x="30" width="175" height="30" as="geometry" />
        </mxCell>
        <mxCell id="_PAfrLWKHHTyLRyNxyh0-43" value="Journey" style="shape=table;startSize=30;container=1;collapsible=1;childLayout=tableLayout;fixedRows=1;rowLines=0;fontStyle=1;align=center;resizeLast=1;" parent="1" vertex="1">
          <mxGeometry x="695" y="320" width="220" height="160" as="geometry" />
        </mxCell>
        <mxCell id="_PAfrLWKHHTyLRyNxyh0-44" value="" style="shape=partialRectangle;collapsible=0;dropTarget=0;pointerEvents=0;fillColor=none;top=0;left=0;bottom=1;right=0;points=[[0,0.5],[1,0.5]];portConstraint=eastwest;" parent="_PAfrLWKHHTyLRyNxyh0-43" vertex="1">
          <mxGeometry y="30" width="220" height="30" as="geometry" />
        </mxCell>
        <mxCell id="_PAfrLWKHHTyLRyNxyh0-45" value="PK" style="shape=partialRectangle;connectable=0;fillColor=none;top=0;left=0;bottom=0;right=0;fontStyle=1;overflow=hidden;" parent="_PAfrLWKHHTyLRyNxyh0-44" vertex="1">
          <mxGeometry width="30" height="30" as="geometry" />
        </mxCell>
        <mxCell id="_PAfrLWKHHTyLRyNxyh0-46" value="TripCode : Int(11)" style="shape=partialRectangle;connectable=0;fillColor=none;top=0;left=0;bottom=0;right=0;align=left;spacingLeft=6;fontStyle=5;overflow=hidden;" parent="_PAfrLWKHHTyLRyNxyh0-44" vertex="1">
          <mxGeometry x="30" width="190" height="30" as="geometry" />
        </mxCell>
        <mxCell id="_PAfrLWKHHTyLRyNxyh0-47" value="" style="shape=partialRectangle;collapsible=0;dropTarget=0;pointerEvents=0;fillColor=none;top=0;left=0;bottom=0;right=0;points=[[0,0.5],[1,0.5]];portConstraint=eastwest;" parent="_PAfrLWKHHTyLRyNxyh0-43" vertex="1">
          <mxGeometry y="60" width="220" height="30" as="geometry" />
        </mxCell>
        <mxCell id="_PAfrLWKHHTyLRyNxyh0-48" value="" style="shape=partialRectangle;connectable=0;fillColor=none;top=0;left=0;bottom=0;right=0;editable=1;overflow=hidden;" parent="_PAfrLWKHHTyLRyNxyh0-47" vertex="1">
          <mxGeometry width="30" height="30" as="geometry" />
        </mxCell>
        <mxCell id="_PAfrLWKHHTyLRyNxyh0-49" value="ScheduleTime : Time" style="shape=partialRectangle;connectable=0;fillColor=none;top=0;left=0;bottom=0;right=0;align=left;spacingLeft=6;overflow=hidden;" parent="_PAfrLWKHHTyLRyNxyh0-47" vertex="1">
          <mxGeometry x="30" width="190" height="30" as="geometry" />
        </mxCell>
        <mxCell id="_PAfrLWKHHTyLRyNxyh0-50" value="" style="shape=partialRectangle;collapsible=0;dropTarget=0;pointerEvents=0;fillColor=none;top=0;left=0;bottom=0;right=0;points=[[0,0.5],[1,0.5]];portConstraint=eastwest;" parent="_PAfrLWKHHTyLRyNxyh0-43" vertex="1">
          <mxGeometry y="90" width="220" height="30" as="geometry" />
        </mxCell>
        <mxCell id="_PAfrLWKHHTyLRyNxyh0-51" value="" style="shape=partialRectangle;connectable=0;fillColor=none;top=0;left=0;bottom=0;right=0;editable=1;overflow=hidden;" parent="_PAfrLWKHHTyLRyNxyh0-50" vertex="1">
          <mxGeometry width="30" height="30" as="geometry" />
        </mxCell>
        <mxCell id="_PAfrLWKHHTyLRyNxyh0-52" value="RouteCode : Varchar(11)" style="shape=partialRectangle;connectable=0;fillColor=none;top=0;left=0;bottom=0;right=0;align=left;spacingLeft=6;overflow=hidden;" parent="_PAfrLWKHHTyLRyNxyh0-50" vertex="1">
          <mxGeometry x="30" width="190" height="30" as="geometry" />
        </mxCell>
        <mxCell id="_PAfrLWKHHTyLRyNxyh0-53" value="" style="shape=partialRectangle;collapsible=0;dropTarget=0;pointerEvents=0;fillColor=none;top=0;left=0;bottom=0;right=0;points=[[0,0.5],[1,0.5]];portConstraint=eastwest;" parent="_PAfrLWKHHTyLRyNxyh0-43" vertex="1">
          <mxGeometry y="120" width="220" height="30" as="geometry" />
        </mxCell>
        <mxCell id="_PAfrLWKHHTyLRyNxyh0-54" value="" style="shape=partialRectangle;connectable=0;fillColor=none;top=0;left=0;bottom=0;right=0;editable=1;overflow=hidden;" parent="_PAfrLWKHHTyLRyNxyh0-53" vertex="1">
          <mxGeometry width="30" height="30" as="geometry" />
        </mxCell>
        <mxCell id="_PAfrLWKHHTyLRyNxyh0-55" value="CompanyName : Varchar(11)" style="shape=partialRectangle;connectable=0;fillColor=none;top=0;left=0;bottom=0;right=0;align=left;spacingLeft=6;overflow=hidden;" parent="_PAfrLWKHHTyLRyNxyh0-53" vertex="1">
          <mxGeometry x="30" width="190" height="30" as="geometry" />
        </mxCell>
        <mxCell id="_PAfrLWKHHTyLRyNxyh0-56" style="edgeStyle=orthogonalEdgeStyle;rounded=0;orthogonalLoop=1;jettySize=auto;html=1;exitX=1;exitY=0.5;exitDx=0;exitDy=0;entryX=0;entryY=0.5;entryDx=0;entryDy=0;" parent="1" source="_PAfrLWKHHTyLRyNxyh0-11" target="_PAfrLWKHHTyLRyNxyh0-15" edge="1">
          <mxGeometry relative="1" as="geometry">
            <Array as="points">
              <mxPoint x="585" y="265" />
              <mxPoint x="585" y="165" />
            </Array>
          </mxGeometry>
        </mxCell>
        <mxCell id="_PAfrLWKHHTyLRyNxyh0-57" style="edgeStyle=orthogonalEdgeStyle;rounded=0;orthogonalLoop=1;jettySize=auto;html=1;exitX=0;exitY=0.5;exitDx=0;exitDy=0;entryX=0;entryY=0.5;entryDx=0;entryDy=0;" parent="1" source="_PAfrLWKHHTyLRyNxyh0-24" target="_PAfrLWKHHTyLRyNxyh0-31" edge="1">
          <mxGeometry relative="1" as="geometry">
            <Array as="points">
              <mxPoint x="695" y="215" />
              <mxPoint x="620" y="215" />
              <mxPoint x="620" y="310" />
              <mxPoint x="370" y="310" />
              <mxPoint x="370" y="375" />
            </Array>
          </mxGeometry>
        </mxCell>
        <mxCell id="_PAfrLWKHHTyLRyNxyh0-58" style="edgeStyle=orthogonalEdgeStyle;rounded=0;orthogonalLoop=1;jettySize=auto;html=1;exitX=1;exitY=0.5;exitDx=0;exitDy=0;entryX=0;entryY=0.5;entryDx=0;entryDy=0;" parent="1" source="_PAfrLWKHHTyLRyNxyh0-34" target="_PAfrLWKHHTyLRyNxyh0-44" edge="1">
          <mxGeometry relative="1" as="geometry" />
        </mxCell>
        <mxCell id="JBSYBSq5ov4Ee-U6gWMv-1" value="Ticket" style="shape=table;startSize=30;container=1;collapsible=1;childLayout=tableLayout;fixedRows=1;rowLines=0;fontStyle=1;align=center;resizeLast=1;" vertex="1" parent="1">
          <mxGeometry x="445" y="510" width="207.5" height="200" as="geometry" />
        </mxCell>
        <mxCell id="JBSYBSq5ov4Ee-U6gWMv-2" value="" style="shape=partialRectangle;collapsible=0;dropTarget=0;pointerEvents=0;fillColor=none;top=0;left=0;bottom=1;right=0;points=[[0,0.5],[1,0.5]];portConstraint=eastwest;" vertex="1" parent="JBSYBSq5ov4Ee-U6gWMv-1">
          <mxGeometry y="30" width="207.5" height="30" as="geometry" />
        </mxCell>
        <mxCell id="JBSYBSq5ov4Ee-U6gWMv-3" value="PK" style="shape=partialRectangle;connectable=0;fillColor=none;top=0;left=0;bottom=0;right=0;fontStyle=1;overflow=hidden;" vertex="1" parent="JBSYBSq5ov4Ee-U6gWMv-2">
          <mxGeometry width="30" height="30" as="geometry" />
        </mxCell>
        <mxCell id="JBSYBSq5ov4Ee-U6gWMv-4" value="TicketCode : Int(11)" style="shape=partialRectangle;connectable=0;fillColor=none;top=0;left=0;bottom=0;right=0;align=left;spacingLeft=6;fontStyle=5;overflow=hidden;" vertex="1" parent="JBSYBSq5ov4Ee-U6gWMv-2">
          <mxGeometry x="30" width="177.5" height="30" as="geometry" />
        </mxCell>
        <mxCell id="JBSYBSq5ov4Ee-U6gWMv-5" value="" style="shape=partialRectangle;collapsible=0;dropTarget=0;pointerEvents=0;fillColor=none;top=0;left=0;bottom=0;right=0;points=[[0,0.5],[1,0.5]];portConstraint=eastwest;" vertex="1" parent="JBSYBSq5ov4Ee-U6gWMv-1">
          <mxGeometry y="60" width="207.5" height="30" as="geometry" />
        </mxCell>
        <mxCell id="JBSYBSq5ov4Ee-U6gWMv-6" value="" style="shape=partialRectangle;connectable=0;fillColor=none;top=0;left=0;bottom=0;right=0;editable=1;overflow=hidden;" vertex="1" parent="JBSYBSq5ov4Ee-U6gWMv-5">
          <mxGeometry width="30" height="30" as="geometry" />
        </mxCell>
        <mxCell id="JBSYBSq5ov4Ee-U6gWMv-7" value="TripCode : Int(11)" style="shape=partialRectangle;connectable=0;fillColor=none;top=0;left=0;bottom=0;right=0;align=left;spacingLeft=6;overflow=hidden;" vertex="1" parent="JBSYBSq5ov4Ee-U6gWMv-5">
          <mxGeometry x="30" width="177.5" height="30" as="geometry" />
        </mxCell>
        <mxCell id="JBSYBSq5ov4Ee-U6gWMv-8" value="" style="shape=partialRectangle;collapsible=0;dropTarget=0;pointerEvents=0;fillColor=none;top=0;left=0;bottom=0;right=0;points=[[0,0.5],[1,0.5]];portConstraint=eastwest;" vertex="1" parent="JBSYBSq5ov4Ee-U6gWMv-1">
          <mxGeometry y="90" width="207.5" height="30" as="geometry" />
        </mxCell>
        <mxCell id="JBSYBSq5ov4Ee-U6gWMv-9" value="" style="shape=partialRectangle;connectable=0;fillColor=none;top=0;left=0;bottom=0;right=0;editable=1;overflow=hidden;" vertex="1" parent="JBSYBSq5ov4Ee-U6gWMv-8">
          <mxGeometry width="30" height="30" as="geometry" />
        </mxCell>
        <mxCell id="JBSYBSq5ov4Ee-U6gWMv-10" value="RouteCode : Varchar(11)" style="shape=partialRectangle;connectable=0;fillColor=none;top=0;left=0;bottom=0;right=0;align=left;spacingLeft=6;overflow=hidden;" vertex="1" parent="JBSYBSq5ov4Ee-U6gWMv-8">
          <mxGeometry x="30" width="177.5" height="30" as="geometry" />
        </mxCell>
        <mxCell id="JBSYBSq5ov4Ee-U6gWMv-11" value="" style="shape=partialRectangle;collapsible=0;dropTarget=0;pointerEvents=0;fillColor=none;top=0;left=0;bottom=0;right=0;points=[[0,0.5],[1,0.5]];portConstraint=eastwest;" vertex="1" parent="JBSYBSq5ov4Ee-U6gWMv-1">
          <mxGeometry y="120" width="207.5" height="30" as="geometry" />
        </mxCell>
        <mxCell id="JBSYBSq5ov4Ee-U6gWMv-12" value="" style="shape=partialRectangle;connectable=0;fillColor=none;top=0;left=0;bottom=0;right=0;editable=1;overflow=hidden;" vertex="1" parent="JBSYBSq5ov4Ee-U6gWMv-11">
          <mxGeometry width="30" height="30" as="geometry" />
        </mxCell>
        <mxCell id="JBSYBSq5ov4Ee-U6gWMv-13" value="Status : Varchar(50)" style="shape=partialRectangle;connectable=0;fillColor=none;top=0;left=0;bottom=0;right=0;align=left;spacingLeft=6;overflow=hidden;" vertex="1" parent="JBSYBSq5ov4Ee-U6gWMv-11">
          <mxGeometry x="30" width="177.5" height="30" as="geometry" />
        </mxCell>
        <mxCell id="JBSYBSq5ov4Ee-U6gWMv-15" style="edgeStyle=orthogonalEdgeStyle;rounded=0;orthogonalLoop=1;jettySize=auto;html=1;exitX=1;exitY=0.5;exitDx=0;exitDy=0;entryX=1;entryY=0.5;entryDx=0;entryDy=0;" edge="1" parent="1" source="_PAfrLWKHHTyLRyNxyh0-44" target="JBSYBSq5ov4Ee-U6gWMv-5">
          <mxGeometry relative="1" as="geometry" />
        </mxCell>
        <mxCell id="JBSYBSq5ov4Ee-U6gWMv-16" style="edgeStyle=orthogonalEdgeStyle;rounded=0;orthogonalLoop=1;jettySize=auto;html=1;exitX=0;exitY=0.5;exitDx=0;exitDy=0;" edge="1" parent="1" source="_PAfrLWKHHTyLRyNxyh0-11" target="JBSYBSq5ov4Ee-U6gWMv-8">
          <mxGeometry relative="1" as="geometry" />
        </mxCell>
        <mxCell id="JBSYBSq5ov4Ee-U6gWMv-17" value="CompanyName:Varchar(50)" style="shape=partialRectangle;connectable=0;fillColor=none;top=0;left=0;bottom=0;right=0;align=left;spacingLeft=6;overflow=hidden;" vertex="1" parent="1">
          <mxGeometry x="475" y="660" width="150" height="30" as="geometry" />
        </mxCell>
      </root>
    </mxGraphModel>
  </diagram>
</mxfile>
